<svg width="548" height="548" viewBox="0 0 548 548" fill="none" xmlns="http://www.w3.org/2000/svg">
<g clip-path="url(#clip0)">
<rect x="112.671" width="450" height="450" transform="rotate(14.5 112.671 0)" fill="#5865F2"/>
<g clip-path="url(#clip1)">
<path d="M269.335 245.148C248.531 265.892 228.535 286.019 208.296 305.893C203.099 310.995 200.027 315.452 200.944 323.882C203.474 347.172 186.826 364.894 164.122 365.001C142.709 365.104 126.61 346.793 128.219 324.162C129.64 304.131 149.228 289.199 170.945 291.627C172.764 291.828 174.564 292.262 177.57 292.803L223.334 247.268C208.484 222.032 202.62 195.506 212.772 167.138C219.949 147.086 232.56 131.415 250.983 120.663C286.269 100.072 330.277 106.642 357.814 136.572C384.26 165.32 388.459 209.082 367.208 240.111C358.519 235.143 349.771 230.135 340.154 224.634C348.969 206.606 350.511 188.769 341.544 170.827C335.618 158.98 326.116 151.117 314.305 146.07C290.626 135.948 262.305 145.629 248.826 168.124C233.529 193.652 240.026 219.419 269.334 245.149L269.335 245.148Z" fill="white"/>
<path d="M318.152 226.878C323.665 247.618 329.264 268.673 334.814 289.534C390.845 286.796 422.469 325.802 428.494 360.364C435.772 402.114 412.744 443.378 373.51 457.828C333.238 472.661 291.094 457.449 268.699 419.223C278.091 414.719 287.528 410.197 297.612 405.365C322.458 432.578 348.834 438.421 374.206 420.366C395.844 404.963 403.075 375.522 391.031 351.849C377.131 324.53 350.985 317.045 313.648 330.162C306.546 303.179 299.165 276.325 292.524 249.28C290.283 240.164 286.727 234.291 277.451 230.086C261.963 223.06 255.117 206.331 258.551 190.46C261.951 174.765 274.675 163.073 290.302 161.277C305.782 159.497 321.171 168.145 327.524 182.642C332.717 194.487 332.311 206.202 325.099 217.289C323.091 220.382 320.778 223.278 318.152 226.879L318.152 226.878Z" fill="white"/>
<path d="M304.244 381.176L241.819 365.032C229.429 388.257 211.333 404.914 185.776 411.874C165.908 417.281 146.383 415.807 127.36 407.444C92.3321 392.053 71.0045 351.19 78.0203 313.203C85.9715 270.17 124.545 240.067 165.192 241.577C165.337 251.971 165.487 262.466 165.638 272.837C125.659 281.835 107.538 301.513 110.03 332.623C112.226 360.001 133.362 380.162 161.558 381.771C190.351 383.414 210.084 364.075 217.907 326.87C243.87 333.585 269.924 340.034 295.785 347.153C305.883 349.936 313.984 350.902 323.948 343.879C340.352 332.326 363.153 339.648 373.08 357.133C383.225 375.003 376.616 397.824 358.429 407.724C340.883 417.277 318.74 410.797 309.199 393.147C307.24 389.512 306 385.475 304.244 381.176Z" fill="white"/>
</g>
</g>
<defs>
<clipPath id="clip0">
<rect width="548" height="548" fill="white"/>
</clipPath>
<clipPath id="clip1">
<rect width="360.639" height="338.916" fill="white" transform="translate(141.982 65.0042) rotate(14.5)"/>
</clipPath>
</defs>
</svg>
